<svg width="42" height="42" viewBox="0 0 42 42" fill="none" xmlns="http://www.w3.org/2000/svg">
<path d="M21.2111 0C9.6361 0 0.249969 9.54442 0.249969 21.319C0.249969 30.7384 6.25597 38.7298 14.5845 41.5488C15.632 41.7462 16.0166 41.0864 16.0166 40.5233C16.0166 40.0149 15.9972 38.3355 15.9882 36.554C10.1568 37.8437 8.92627 34.0386 8.92627 34.0386C7.97276 31.5744 6.59891 30.9192 6.59891 30.9192C4.69711 29.596 6.74227 29.6232 6.74227 29.6232C8.84713 29.7732 9.95544 31.8201 9.95544 31.8201C11.825 35.0794 14.859 34.1371 16.0552 33.5924C16.2433 32.2148 16.7865 31.2736 17.386 30.7416C12.7302 30.2025 7.836 28.3745 7.836 20.2055C7.836 17.8779 8.65483 15.9761 9.9957 14.4831C9.77807 13.9458 9.0606 11.7777 10.1988 8.84116C10.1988 8.84116 11.9589 8.26818 15.9646 11.0265C17.6366 10.5541 19.4297 10.3172 21.2111 10.3091C22.9924 10.3172 24.787 10.5541 26.4621 11.0265C30.4629 8.26818 32.2206 8.84116 32.2206 8.84116C33.3616 11.7777 32.6438 13.9458 32.4261 14.4831C33.7701 15.9761 34.5834 17.8779 34.5834 20.2055C34.5834 28.3939 29.6798 30.1969 25.0123 30.7246C25.7641 31.3862 26.434 32.6837 26.434 34.6727C26.434 37.5249 26.4097 39.8207 26.4097 40.5233C26.4097 41.0906 26.787 41.7554 27.8495 41.546C36.1735 38.7238 42.1719 30.7352 42.1719 21.319C42.1719 9.54442 32.7871 0 21.2111 0Z" fill="white"/>
<path d="M8.18902 30.6095C8.14286 30.7158 7.97902 30.7472 7.82977 30.6744C7.67773 30.6049 7.59234 30.4605 7.64163 30.3542C7.68676 30.2451 7.85094 30.2151 8.00262 30.2875C8.155 30.3574 8.24178 30.5032 8.18902 30.6095Z" fill="white"/>
<path d="M9.03804 31.5726C8.93807 31.6669 8.74265 31.6231 8.61005 31.4741C8.47295 31.3255 8.44726 31.1267 8.54862 31.031C8.65171 30.9368 8.84123 30.9809 8.97868 31.1295C9.11579 31.2799 9.14252 31.4773 9.03804 31.5726Z" fill="white"/>
<path d="M9.86449 32.8005C9.73606 32.8913 9.52606 32.8062 9.39624 32.6166C9.26781 32.427 9.26781 32.1997 9.39902 32.1086C9.52918 32.0175 9.73606 32.0994 9.86761 32.2876C9.99569 32.48 9.99569 32.7077 9.86449 32.8005Z" fill="white"/>
<path d="M10.9968 33.9868C10.8819 34.1157 10.6372 34.0811 10.458 33.9053C10.2748 33.7334 10.2238 33.4894 10.339 33.3606C10.4553 33.2313 10.7014 33.2677 10.8819 33.4421C11.0638 33.6137 11.1193 33.8594 10.9968 33.9868Z" fill="white"/>
<path d="M12.5587 34.6756C12.5081 34.8426 12.2724 34.9185 12.035 34.8475C11.7979 34.7745 11.6427 34.5789 11.6906 34.4101C11.7399 34.2421 11.9766 34.163 12.2158 34.2389C12.4525 34.3116 12.608 34.5058 12.5587 34.6756Z" fill="white"/>
<path d="M14.2742 34.8033C14.2801 34.9792 14.0787 35.125 13.8295 35.1278C13.5789 35.1338 13.3762 34.9915 13.3734 34.8185C13.3734 34.6409 13.5702 34.4965 13.8208 34.4923C14.0701 34.4874 14.2742 34.6286 14.2742 34.8033Z" fill="white"/>
<path d="M15.8705 34.527C15.9004 34.6985 15.7272 34.8747 15.4797 34.9213C15.2363 34.9669 15.0111 34.8609 14.9802 34.6908C14.95 34.515 15.1263 34.3388 15.3693 34.2933C15.6171 34.2495 15.8389 34.3526 15.8705 34.527Z" fill="white"/>
</svg>
