<svg width="42" height="42" viewBox="0 0 42 42" fill="none" xmlns="http://www.w3.org/2000/svg">
<path fill-rule="evenodd" clip-rule="evenodd" d="M21 42C32.598 42 42 32.598 42 21C42 9.40202 32.598 0 21 0C9.40202 0 0 9.40202 0 21C0 32.598 9.40202 42 21 42ZM11.2 27.125C11.2 27.8012 11.75 28.35 12.425 28.35H29.575C30.25 28.35 30.8 27.8012 30.8 27.125V15.1813L21.735 21.98C21.517 22.1442 21.2585 22.225 21 22.225C20.7415 22.225 20.4831 22.1442 20.265 21.98L11.2 15.1813V27.125ZM21 19.4688L28.7579 13.65H13.2421L21 19.4688ZM12.425 11.2H29.575C31.6012 11.2 33.25 12.8488 33.25 14.875V27.125C33.25 29.1511 31.6012 30.8 29.575 30.8H12.425C10.3989 30.8 8.75 29.1511 8.75 27.125V14.875C8.75 12.8488 10.3989 11.2 12.425 11.2Z" fill="white"/>
</svg>
