<svg width="42" height="42" viewBox="0 0 42 42" fill="none" xmlns="http://www.w3.org/2000/svg">
<path fill-rule="evenodd" clip-rule="evenodd" d="M21 0.839993C19.765 0.839993 18.5559 0.951043 17.3822 1.1637C15.8047 0.417404 14.0411 0 12.18 0C5.45317 0 0 5.45317 0 12.18C0 14.0411 0.417404 15.8047 1.1637 17.3822C0.951044 18.5559 0.839994 19.765 0.839994 21C0.839994 32.1341 9.86593 41.16 21 41.16C22.235 41.16 23.444 41.0489 24.6177 40.8363C26.1953 41.5826 27.9589 42 29.82 42C36.5468 42 42 36.5468 42 29.82C42 27.9589 41.5826 26.1953 40.8363 24.6177C41.0489 23.4441 41.16 22.235 41.16 21C41.16 9.86593 32.1341 0.839993 21 0.839993ZM13.8505 18.5886C14.3261 19.4038 14.9836 20.098 15.7718 20.6172H15.7717C16.8162 21.3006 17.9266 21.8777 19.0862 22.3397C20.3823 22.8807 21.3877 23.34 22.1022 23.7176C22.7069 24.0144 23.2558 24.4132 23.7249 24.8965C24.0799 25.2734 24.2771 25.772 24.276 26.2898C24.2912 26.6545 24.2193 27.0177 24.0662 27.3492C23.9131 27.6807 23.6833 27.9709 23.3958 28.1959C22.6278 28.7129 21.7089 28.9581 20.7854 28.8924C20.2631 28.8977 19.7419 28.8438 19.2317 28.7317C18.8179 28.6408 18.4131 28.5127 18.0222 28.349C17.6801 28.2011 17.2132 27.9791 16.6214 27.6829C16.1451 27.4288 15.615 27.2923 15.0752 27.2849C14.5902 27.2648 14.1161 27.432 13.7509 27.7518C13.577 27.9175 13.4411 28.119 13.3525 28.3424C13.264 28.5657 13.225 28.8056 13.2382 29.0455C13.2272 29.5003 13.3643 29.9462 13.6286 30.3164C13.9476 30.7205 14.36 31.041 14.8304 31.2503C16.6686 32.0465 18.6611 32.4231 20.6631 32.3526C22.1199 32.3821 23.5699 32.146 24.9421 31.656C26.0809 31.2518 27.0726 30.5159 27.7895 29.5431C28.4935 28.5155 28.8503 27.2896 28.8076 26.0447C28.835 25.0283 28.5807 24.0242 28.0728 23.1434C27.5567 22.305 26.8613 21.5913 26.0366 21.0536C24.9927 20.3802 23.8851 19.811 22.7299 19.3542C22.6063 19.2937 22.4783 19.2425 22.3471 19.201C21.1633 18.7112 20.2728 18.3182 19.6757 18.0221C19.1429 17.7725 18.6603 17.4274 18.2518 17.0039C17.9084 16.643 17.7189 16.1625 17.7237 15.6643C17.707 15.2845 17.7927 14.9072 17.9718 14.5719C18.1509 14.2366 18.4168 13.9555 18.7418 13.7582C19.511 13.3003 20.3962 13.0744 21.2908 13.1076C21.9777 13.1002 22.6625 13.1851 23.3268 13.3602C24.0483 13.5682 24.7543 13.8265 25.4396 14.1332C25.718 14.2622 26.0207 14.3301 26.3275 14.3324C26.5504 14.3384 26.772 14.2971 26.9779 14.2114C27.1837 14.1256 27.369 13.9973 27.5217 13.8348C27.6829 13.6584 27.8078 13.4521 27.8892 13.2275C27.9706 13.0028 28.007 12.7644 27.9963 12.5257C28.0034 12.0662 27.8428 11.6199 27.5447 11.2702C27.1402 10.845 26.6384 10.5246 26.0826 10.3363C25.4775 10.1141 24.8518 9.9525 24.2148 9.85402C23.3243 9.70794 22.4228 9.63879 21.5204 9.64734C20.1414 9.63896 18.7714 9.86947 17.4711 10.3286C16.2758 10.7323 15.2088 11.4455 14.3786 12.3956C13.5797 13.3417 13.1574 14.549 13.1923 15.7868C13.1641 16.7621 13.3909 17.7279 13.8505 18.5886Z" fill="white"/>
</svg>
