<svg width="42" height="42" viewBox="0 0 42 42" fill="none" xmlns="http://www.w3.org/2000/svg">
<path fill-rule="evenodd" clip-rule="evenodd" d="M21 42C32.598 42 42 32.598 42 21C42 9.40202 32.598 0 21 0C9.40202 0 0 9.40202 0 21C0 32.598 9.40202 42 21 42ZM25.0635 22.6742C26.1598 23.5346 27.3665 24.0632 28.6542 24.0632C30.3886 24.0632 31.8039 22.691 31.8098 21.0095C31.8098 19.3224 30.3943 17.9501 28.6542 17.9501C26.3339 17.9501 25.5798 20.1211 25.342 21.4144L25.3304 21.4594L25.0635 22.6742ZM22.4592 19.7892C23.393 16.7187 25.6899 14.8516 28.6541 14.8515C32.1518 14.8515 35 17.6127 35 20.9982C35 24.3894 32.1518 27.1676 28.6541 27.1676C27.0183 27.1676 25.5912 26.6838 24.3499 25.9134L22.9346 32.375H19.6687L21.6236 23.4671C20.7013 22.3423 19.9414 21.077 19.3208 19.8229V21.1726C19.3208 24.4682 16.5538 27.1731 13.1545 27.1731C9.75539 27.1731 6.98843 24.4682 7.00004 21.1726V13.125H10.1907V21.1726C10.1907 22.7585 11.5248 24.0518 13.1606 24.0518C14.7964 24.0518 16.1306 22.7585 16.1306 21.1726V13.125H19.321C19.9531 15.2227 21.0321 17.714 22.4592 19.7892Z" fill="white"/>
</svg>
