<svg width="42" height="42" viewBox="0 0 42 42" fill="none" xmlns="http://www.w3.org/2000/svg">
<path fill-rule="evenodd" clip-rule="evenodd" d="M41.75 21C41.75 32.598 32.348 42 20.75 42C9.15202 42 -0.25 32.598 -0.25 21C-0.25 9.40202 9.15202 0 20.75 0C32.348 0 41.75 9.40202 41.75 21ZM13.8126 19.0763C11.7089 19.9948 9.54744 20.9386 7.57097 22.0272L7.57083 22.0274C6.53878 22.783 7.91058 23.3174 9.19742 23.8188C9.40201 23.8985 9.60444 23.9774 9.79473 24.0562C9.95307 24.1048 10.1141 24.1561 10.2773 24.2081C11.7085 24.6641 13.3044 25.1725 14.6939 24.4077C16.9763 23.0965 19.1303 21.5807 21.2827 20.0659C21.9879 19.5697 22.6929 19.0735 23.4022 18.5847C23.4354 18.5635 23.4729 18.5392 23.5139 18.5126C24.1182 18.1209 25.4771 17.24 24.9744 18.4538C23.7858 19.7537 22.5126 20.9044 21.2325 22.0614C20.3698 22.8411 19.5039 23.6237 18.6587 24.4567C17.9225 25.0548 17.1581 26.2577 17.9824 27.0953C19.881 28.4245 21.8093 29.7214 23.7365 31.0176C24.3637 31.4394 24.9907 31.8611 25.6166 32.2839C26.6773 33.1307 28.3349 32.4457 28.5681 31.1224C28.6719 30.5137 28.776 29.905 28.8801 29.2963C29.4555 25.9322 30.0311 22.5669 30.5395 19.1918C30.6086 18.6624 30.687 18.133 30.7653 17.6033C30.9553 16.3196 31.1455 15.0343 31.2049 13.7437C31.0518 12.4558 29.4901 12.7389 28.621 13.0285C24.154 14.7283 19.7315 16.5541 15.3266 18.4121C14.8276 18.6331 14.3218 18.854 13.8126 19.0763Z" fill="white"/>
</svg>
